<svg width="14" height="3" viewBox="0 0 14 3" fill="none" xmlns="http://www.w3.org/2000/svg">
<path d="M6.8439 2.694C7.54593 2.694 8.11504 2.12489 8.11504 1.42286C8.11504 0.720828 7.54593 0.151718 6.8439 0.151718C6.14186 0.151718 5.57275 0.720828 5.57275 1.42286C5.57275 2.12489 6.14186 2.694 6.8439 2.694Z" fill="black"/>
<path d="M1.75942 2.694C2.46146 2.694 3.03056 2.12489 3.03056 1.42286C3.03056 0.720828 2.46146 0.151718 1.75942 0.151718C1.05739 0.151718 0.488281 0.720828 0.488281 1.42286C0.488281 2.12489 1.05739 2.694 1.75942 2.694Z" fill="black"/>
<path d="M11.9284 2.694C12.6304 2.694 13.1995 2.12489 13.1995 1.42286C13.1995 0.720828 12.6304 0.151718 11.9284 0.151718C11.2263 0.151718 10.6572 0.720828 10.6572 1.42286C10.6572 2.12489 11.2263 2.694 11.9284 2.694Z" fill="black"/>
</svg>
