<svg width="22" height="22" viewBox="0 0 22 22" fill="none" xmlns="http://www.w3.org/2000/svg">
<path d="M11.003 1.00098C12.303 0.959238 13.5982 1.17924 14.8115 1.64792C16.0248 2.11661 17.1316 2.8244 18.0659 3.72925C19.0003 4.63411 19.7433 5.71755 20.2506 6.91521C20.758 8.11286 21.0195 9.40029 21.0195 10.701C21.0195 12.0017 20.758 13.2891 20.2506 14.4868C19.7433 15.6844 19.0003 16.7679 18.0659 17.6727C17.1316 18.5776 16.0248 19.2854 14.8115 19.754C13.5982 20.2227 12.303 20.4427 11.003 20.401C10.0251 20.4037 9.05135 20.2745 8.108 20.017C7.93102 19.9687 7.74279 19.9828 7.575 20.057L5.591 20.933C5.47104 20.9857 5.33996 21.0082 5.20927 20.9985C5.07859 20.9888 4.95228 20.9472 4.84142 20.8773C4.73056 20.8074 4.63855 20.7114 4.57344 20.5977C4.50834 20.4839 4.47213 20.356 4.468 20.225L4.414 18.445C4.40949 18.3369 4.38327 18.2308 4.33688 18.133C4.29049 18.0353 4.2249 17.9478 4.144 17.876C3.14018 16.9723 2.3408 15.8649 1.7993 14.6275C1.25781 13.3902 0.986666 12.0515 1.004 10.701C0.996401 9.39953 1.25214 8.10999 1.75583 6.90993C2.25952 5.70987 3.00076 4.6241 3.93495 3.71794C4.86914 2.81178 5.97697 2.10395 7.19181 1.63703C8.40665 1.17011 9.70238 0.953758 11.003 1.00098Z" stroke="black" stroke-width="1.739" stroke-miterlimit="10"/>
<path fill-rule="evenodd" clip-rule="evenodd" d="M16.79 9.13197C16.8735 9.00084 16.908 8.8444 16.8874 8.6903C16.8667 8.5362 16.7922 8.39437 16.6771 8.28989C16.5619 8.1854 16.4136 8.12499 16.2582 8.11933C16.1028 8.11368 15.9504 8.16314 15.828 8.25897L13.272 10.309C13.163 10.3915 13.0301 10.4364 12.8933 10.4367C12.7566 10.4371 12.6235 10.3929 12.514 10.311L10.06 8.46998C9.88591 8.33963 9.68671 8.24673 9.47496 8.19712C9.26321 8.14752 9.04348 8.14227 8.8296 8.18172C8.61572 8.22117 8.41232 8.30446 8.23221 8.42635C8.05209 8.54824 7.89914 8.7061 7.783 8.88998L5.216 12.87C5.13172 13.001 5.09658 13.1576 5.11682 13.3121C5.13706 13.4666 5.21137 13.6089 5.32657 13.7138C5.44176 13.8187 5.59039 13.8793 5.74607 13.8851C5.90176 13.8908 6.05443 13.8411 6.177 13.745L8.733 11.696C8.84211 11.6132 8.97521 11.5682 9.11217 11.5678C9.24913 11.5675 9.38247 11.6118 9.492 11.694L11.944 13.534C12.1181 13.6645 12.3174 13.7575 12.5293 13.8072C12.7411 13.8569 12.961 13.8622 13.175 13.8228C13.389 13.7833 13.5925 13.7 13.7727 13.578C13.9529 13.456 14.1059 13.298 14.222 13.114L16.79 9.13197Z" fill="black"/>
</svg>
