<svg width="22" height="22" viewBox="0 0 22 22" fill="none" xmlns="http://www.w3.org/2000/svg">
<path d="M11.003 1.00098C12.303 0.959238 13.5981 1.17924 14.8115 1.64792C16.0248 2.11661 17.1315 2.8244 18.0659 3.72925C19.0003 4.63411 19.7432 5.71755 20.2506 6.91521C20.758 8.11286 21.0194 9.40029 21.0194 10.701C21.0194 12.0017 20.758 13.2891 20.2506 14.4868C19.7432 15.6844 19.0003 16.7679 18.0659 17.6727C17.1315 18.5776 16.0248 19.2854 14.8115 19.754C13.5981 20.2227 12.303 20.4427 11.003 20.401C10.0251 20.4037 9.0513 20.2745 8.10796 20.017C7.93097 19.9687 7.74274 19.9828 7.57496 20.057L5.59096 20.933C5.47099 20.9857 5.33992 21.0082 5.20923 20.9985C5.07854 20.9888 4.95223 20.9472 4.84137 20.8773C4.73052 20.8074 4.6385 20.7114 4.5734 20.5977C4.50829 20.4839 4.47209 20.356 4.46796 20.225L4.41396 18.445C4.40945 18.3369 4.38322 18.2308 4.33683 18.133C4.29045 18.0353 4.22485 17.9478 4.14396 17.876C3.14013 16.9724 2.34075 15.8649 1.79926 14.6275C1.25776 13.3902 0.98662 12.0515 1.00396 10.701C0.996355 9.39953 1.25209 8.10999 1.75579 6.90993C2.25948 5.70987 3.00071 4.6241 3.9349 3.71794C4.86909 2.81178 5.97693 2.10395 7.19177 1.63703C8.4066 1.17011 9.70234 0.953758 11.003 1.00098Z" fill="black" stroke="black" stroke-width="1.739" stroke-miterlimit="10"/>
<path fill-rule="evenodd" clip-rule="evenodd" d="M16.7901 9.13197C16.8736 9.00084 16.9081 8.8444 16.8875 8.6903C16.8668 8.5362 16.7923 8.39437 16.6772 8.28989C16.562 8.1854 16.4137 8.12499 16.2583 8.11933C16.1029 8.11368 15.9505 8.16314 15.8281 8.25897L13.2721 10.309C13.1631 10.3915 13.0302 10.4364 12.8934 10.4367C12.7567 10.4371 12.6235 10.3929 12.5141 10.311L10.0601 8.46998C9.886 8.33963 9.6868 8.24673 9.47505 8.19712C9.2633 8.14752 9.04357 8.14227 8.82969 8.18172C8.61581 8.22117 8.41242 8.30446 8.2323 8.42635C8.05218 8.54824 7.89924 8.7061 7.7831 8.88998L5.2161 12.87C5.13181 13.001 5.09667 13.1576 5.11691 13.3121C5.13716 13.4666 5.21147 13.6089 5.32666 13.7138C5.44185 13.8187 5.59048 13.8793 5.74617 13.8851C5.90185 13.8908 6.05453 13.8411 6.1771 13.745L8.7331 11.696C8.8422 11.6132 8.97531 11.5682 9.11226 11.5678C9.24922 11.5675 9.38256 11.6118 9.4921 11.694L11.9441 13.534C12.1182 13.6645 12.3175 13.7575 12.5293 13.8072C12.7412 13.8569 12.9611 13.8622 13.1751 13.8228C13.3891 13.7833 13.5926 13.7 13.7728 13.578C13.953 13.456 14.106 13.298 14.2221 13.114L16.7901 9.13197Z" fill="white"/>
</svg>
