<svg width="23" height="21" viewBox="0 0 23 21" fill="none" xmlns="http://www.w3.org/2000/svg">
<path d="M16.2961 2.00309C17.6105 2.07576 18.8429 2.665 19.7248 3.6424C20.6067 4.6198 21.0665 5.90614 21.0041 7.22109C21.0041 10.2931 18.3521 12.1801 15.8071 14.4431C13.2951 16.6861 11.9421 17.9121 11.5041 18.1951C11.0271 17.8861 9.36107 16.3721 7.20107 14.4431C4.64507 12.1711 2.00407 10.2661 2.00407 7.22109C1.94164 5.90614 2.40146 4.6198 3.28333 3.6424C4.1652 2.665 5.39764 2.07576 6.71207 2.00309C7.44022 1.98103 8.16163 2.14828 8.80578 2.48849C9.44994 2.82871 9.99479 3.33026 10.3871 3.94409C11.2271 5.11909 11.3671 5.70709 11.5071 5.70709C11.6471 5.70709 11.7851 5.11909 12.6171 3.94109C13.0071 3.32442 13.5522 2.82089 14.1978 2.48081C14.8434 2.14073 15.5669 1.976 16.2961 2.00309ZM16.2961 0.00309361C15.388 -0.0259796 14.4851 0.150177 13.6545 0.518445C12.824 0.886713 12.0872 1.4376 11.4991 2.13009C10.9114 1.43962 10.1762 0.890001 9.34762 0.521846C8.51905 0.15369 7.61835 -0.0235932 6.71207 0.00309361C4.86694 0.0752455 3.12545 0.875077 1.86841 2.22769C0.611371 3.5803 -0.0589338 5.37563 0.00407174 7.22109C0.00407174 10.8311 2.55407 13.0481 5.01907 15.1911C5.30207 15.4371 5.58807 15.6851 5.87207 15.9381L6.89907 16.8561C8.01911 17.9219 9.19334 18.9292 10.4171 19.8741C10.7409 20.0837 11.1183 20.1953 11.5041 20.1953C11.8898 20.1953 12.2673 20.0837 12.5911 19.8741C13.8538 18.9004 15.0641 17.8606 16.2171 16.7591L17.1391 15.9351C17.4321 15.6751 17.7291 15.4161 18.0241 15.1611C20.3581 13.1361 23.0041 10.8411 23.0041 7.22109C23.0671 5.37563 22.3968 3.5803 21.1397 2.22769C19.8827 0.875077 18.1412 0.0752455 16.2961 0.00309361Z" fill="black"/>
<path d="M5.66271 8.68352C6.71847 8.64599 8.3034 8.62983 9.3833 8.45222C9.89885 8.36743 10.6714 8.17692 11.0817 7.76493C11.2129 7.63312 11.3925 7.17636 11.0288 7.09086C10.4459 6.95382 9.39435 7.40313 8.9934 7.59972C8.20553 7.98602 6.87974 8.84544 6.23765 9.46993C6.09601 9.60768 5.19882 10.4684 6.10548 10.5868C6.81792 10.6798 8.25694 10.2186 8.83479 9.97218C9.37259 9.74284 10.2363 9.25749 10.6389 8.74299C10.8357 8.49152 10.7419 8.29134 10.4407 8.28701C10.032 8.28113 9.24495 8.55212 8.92731 8.69013C8.35036 8.94079 7.62003 9.36496 7.12319 9.76071C7.01807 9.84443 6.45084 10.3298 6.45573 10.6132C6.46775 11.3106 8.66911 10.7431 8.86123 10.6925C9.47063 10.5319 10.1613 10.2678 10.705 9.93914C10.8582 9.8465 11.9175 9.1968 11.6368 8.79917C11.4651 8.55585 10.8545 8.58902 10.6885 8.5943C10.0744 8.61384 9.61845 8.70801 9.02975 8.88838C8.55582 9.03359 7.25418 9.59549 7.74769 9.64175C8.40045 9.70295 12.1965 7.93285 11.3262 7.32547C10.996 7.09499 10.2945 7.07046 9.97476 7.05121C9.20432 7.00483 8.49192 7.02323 7.72126 7.06443C7.13893 7.09556 6.72174 7.13096 6.16826 7.21643C6.05703 7.2336 5.7317 7.32327 5.83783 7.28582C6.38807 7.09161 10.9408 5.86299 10.7579 5.333C10.6281 4.957 9.07075 5.09775 8.80836 5.10831C8.48845 5.12118 7.54753 5.22749 7.86334 5.28013C8.20754 5.33749 8.73775 5.04392 9.02644 4.91005C9.24251 4.80986 9.87337 4.57696 9.97807 4.30868C10.0547 4.11226 8.86118 4.29929 8.72245 4.3285C8.56758 4.36111 8.26888 3.79139 8.19707 3.66435C8.10302 3.49795 7.98746 3.49382 7.8336 3.38679C7.6189 3.23743 7.51858 3.03323 7.24214 3.03323C6.91596 3.03323 6.57884 3.00948 6.25417 3.03654C5.75492 3.07814 5.01993 3.42564 4.70117 3.80312C4.09488 4.52109 3.9367 5.48021 4.07005 6.39697C4.15468 6.97878 4.00193 7.43298 3.90814 8.00614C3.84625 8.38438 3.75945 8.7648 3.75945 9.14942C3.75945 9.43487 3.54796 8.75916 3.52154 8.69673C3.30909 8.19458 3.25612 7.59707 3.10521 7.06443C2.96223 6.5598 3.02209 5.92378 3.13495 5.42221C3.18307 5.20831 3.27721 4.93298 3.42572 4.76797C3.51051 4.67376 3.5228 4.69554 3.62728 4.62589C3.7047 4.57427 3.83906 4.47501 3.68676 4.60606C3.31841 4.92301 3.10326 5.40531 2.98625 5.86498C2.86821 6.32873 2.70881 6.93074 2.88052 7.39816C3.06788 7.9082 3.31516 7.98454 3.68676 7.61294C4.35851 6.94118 4.86617 6.12748 5.49088 5.4156C5.78198 5.08389 6.20762 5.17439 6.61433 5.17439C6.83628 5.17439 6.85734 5.16151 6.9778 5.34621C7.07196 5.4906 7.55935 5.90293 7.55935 6.05663C7.55935 6.68017 7.14536 7.36734 6.90841 7.92023C6.62639 8.57827 6.30941 9.24215 6.21121 9.95896C6.14869 10.4154 6.10193 10.8581 6.18478 11.3137C6.2239 11.5289 6.19078 11.5206 6.03278 11.4194C5.8752 11.3186 6.08591 11.821 6.13852 11.8886C6.67633 12.5801 7.41151 13.1382 8.13429 13.6201C8.68277 13.9857 9.20192 14.4307 9.64103 14.9187C9.92168 15.2305 10.3327 15.5178 10.5398 15.8802C10.7111 16.18 11.2153 16.5696 11.5146 16.769C11.5801 16.8128 11.6014 16.9442 11.6996 16.9442C11.7741 16.9442 11.8605 16.7967 11.8978 16.7558C12.1549 16.4739 12.451 16.2291 12.7206 15.9595C13.7955 14.8846 14.947 13.726 15.8299 12.49C16.2537 11.8968 16.7745 11.4798 17.2871 10.9767C17.5138 10.7541 17.7325 10.5231 17.9612 10.3026C18.0963 10.1723 17.5687 10.7523 17.5217 10.8049C17.2194 11.1427 16.877 11.5086 16.6923 11.9283C16.6468 12.0317 16.4365 12.3676 16.7022 12.1827C17.1853 11.8467 17.4643 11.3266 17.9149 10.9568C18.4759 10.4966 19.1099 9.93898 19.4943 9.31793C19.8669 8.71613 20.1597 7.89491 20.2907 7.1966C20.3599 6.82748 20.3534 6.47035 20.3534 6.09628C20.3534 5.62679 19.9631 5.2599 19.6529 4.9497C19.2061 4.50285 18.8744 4.01689 18.3775 3.628C18.086 3.39985 17.7742 3.06362 17.3994 2.98697C16.8479 2.87416 16.1569 2.84139 15.5986 2.95063C15.1789 3.03274 14.7764 3.24918 14.386 3.41653C14.0016 3.58126 13.7871 3.83445 13.4608 4.08399C13.2175 4.27003 12.3241 4.73241 12.3241 5.14465C12.3241 5.54977 14.004 5.35248 14.3463 5.26691C15.0326 5.09534 15.7328 5.15804 16.428 5.06866C16.7703 5.02464 17.1621 4.81669 17.449 5.06535C17.8552 5.41741 18.2323 5.59308 17.7497 6.08637C17.1965 6.65186 16.3431 7.03036 15.6217 7.31555C15.3509 7.42265 15.0711 7.48624 14.7957 7.57989C14.2797 7.75532 13.7977 8.03706 13.3055 8.26718C12.6035 8.59537 11.9446 8.92386 11.2073 9.17585C10.7689 9.32568 10.5163 9.54438 10.2755 9.94574C9.83312 10.683 9.18216 11.5616 9.49895 12.4768C9.69235 13.0355 10.0017 13.4351 10.4869 13.7721C10.6246 13.8677 11.3142 14.346 11.3857 14.0959C11.4858 13.7454 11.5956 13.3962 11.6963 13.0451C11.9531 12.15 11.8794 11.3383 11.7657 10.4282C11.7208 10.0689 11.7482 9.55353 11.6996 10.253C11.6712 10.6624 11.6404 11.0659 11.5806 11.4723C11.5701 11.5437 11.3479 12.4289 11.6104 12.1332C12.4114 11.2309 13.2214 10.1748 14.2538 9.5228C14.3763 9.44544 14.2184 9.81078 14.1877 9.95235C14.0706 10.4913 13.971 11.0335 13.8837 11.578C13.8549 11.7577 13.8487 11.9851 13.7648 12.153C13.6472 12.3882 14.0334 11.7008 14.1745 11.4789C14.5803 10.8404 15.0065 10.2176 15.4367 9.59549C15.7479 9.14545 15.7308 9.17828 15.3871 9.58558C14.886 10.1795 14.3912 10.7774 13.9167 11.393C13.8817 11.4385 13.6111 11.7965 13.5401 11.8853C13.5041 11.9303 13.4336 12.063 13.4178 12.0076C13.3655 11.8244 13.924 11.1053 13.9861 11.0097C14.423 10.3379 14.9163 9.73093 15.4764 9.15933C15.8142 8.81449 15.388 9.33653 15.3508 9.39063C14.8218 10.1607 14.3172 10.947 13.7978 11.7234C13.5701 12.0638 12.8656 13.07 13.0907 12.7279C13.798 11.6527 14.6492 10.6531 15.4697 9.66488C16.0726 8.9389 16.6964 8.08298 17.6406 7.76824C17.8378 7.70254 18.0508 7.74117 18.2486 7.6658C18.3805 7.61558 18.9337 7.15399 18.7542 7.22303C18.2923 7.40069 17.9301 7.86871 17.5911 8.2077C17.5221 8.27666 16.6533 9.03383 17.0888 8.76943C17.6194 8.44729 18.2258 8.03282 18.4502 7.43451" stroke="black" stroke-width="3" stroke-linecap="round"/>
<path d="M4.11629 10.9437C4.16978 11.1398 4.21331 11.2205 4.38064 11.3269C4.55323 11.4368 4.11227 11.2732 4.07334 11.2543C3.9382 11.1884 3.4477 10.7666 3.48848 10.7784C3.85401 10.8843 4.16566 11.1679 4.5062 11.3336C4.62221 11.39 4.65684 11.3497 4.62185 11.2377C4.52524 10.9286 4.8819 11.5991 4.94566 11.6772C5.04355 11.7971 5.40006 12.1424 5.16044 11.7763C4.95631 11.4645 4.69569 11.1854 4.41368 10.9437" stroke="black" stroke-width="3" stroke-linecap="round"/>
</svg>
